<svg xmlns="http://www.w3.org/2000/svg" width="72.732" height="101.213" viewBox="0 0 72.732 101.213">
  <path id="earth-with-leaf" d="M63.453,100a35.865,35.865,0,0,1-.74-71.723,31.459,31.459,0,0,1-.174-3.289l-2.361-3.167A18.413,18.413,0,0,1,44.557,17.34,16.939,16.939,0,0,1,39.315,1.21L39.621,0l1.128.535c.045.022,4.517,2.131,7.173,2.143.48.006,1-.04,1.559-.084,2.794-.22,6.62-.523,10.079,4.079,3.5,4.654,2.485,11.7,2.1,13.708l1.063,1.425a15.133,15.133,0,0,1,2.12-6.433,9.459,9.459,0,0,1,8.7-4.295,6.21,6.21,0,0,1,5.407,3.789,6.128,6.128,0,0,1-.762,6.527A5.134,5.134,0,0,1,72.9,22.835a4.024,4.024,0,0,1-3.015-3.474A4.775,4.775,0,0,1,71.8,14.8l1.042,1.765a2.8,2.8,0,0,0-.918,2.539,1.982,1.982,0,0,0,1.547,1.763,3.057,3.057,0,0,0,3.194-.839,4.093,4.093,0,0,0,.385-4.388A4.226,4.226,0,0,0,73.34,13.12,7.389,7.389,0,0,0,66.558,16.5c-2.42,3.693-2.023,9.626-1.777,11.8A35.865,35.865,0,0,1,63.453,100ZM45.091,92.52a33.819,33.819,0,0,0,24.873,4.8,8.322,8.322,0,0,1-2.515-1.749c-1.6-1.687-6.392-3.042-7.44-2.75-1.159,1.451-4.113,1.8-7.482-.4-1.806-1.18-2.1-.958-2.806-.422-.189.143-.385.291-.6.429-1.363.867-2.832.128-3.58-.27C45.412,92.252,45.258,92.379,45.091,92.52Zm15.285-1.772c2.376,0,6.83,1.586,8.562,3.415a9.311,9.311,0,0,0,4.786,2.193,33.817,33.817,0,0,0,11.9-6.708c-.615-.57-1.934-1.3-4.453-.829-3.788.7-7.009-.246-8.519-1.5a2.521,2.521,0,0,1-1.073-1.932c0-1.373,1.091-2.192,2.054-2.915,1.08-.811,1.538-1.231,1.4-1.851-.627-2.756,1.2-5.97,1.89-6.878.07-.092.173-.245.3-.438.882-1.3,2.718-3.991,4.713-4.591a4.2,4.2,0,0,1,5.12,2.128,8.136,8.136,0,0,0,2.3,2.6,8.435,8.435,0,0,0,1.9,1.06c.193.072.381-.078,1.025-1.21.6-1.052,1.418-2.491,3.025-2.491h.008l1.289,0A33.8,33.8,0,0,0,41.947,38.059c2.661-.031,6.367.17,8.1,1.4,1.53,1.087,3.786,1.73,5.134.857,2.206-1.427,7.962-2.066,10.608-.74A7.275,7.275,0,0,1,67.4,40.719c.812.715,1.349,1.187,3.9.665a6.359,6.359,0,0,1,5.978,10.341c-2.445,3.155-6.856,4.97-10.078,6.3a16.207,16.207,0,0,0-3.072,1.458c-1.434,1.242-3.649,5.988-3.842,7.823a23.712,23.712,0,0,0-.014,2.49c.061,2.567.138,5.762-.962,7.626a2.767,2.767,0,0,1-2.775,1.468c-1.849-.224-3.477-2.1-3.983-3.789-.471-1.571-4.143-3.431-7.359-4.384a7.767,7.767,0,0,0-3.821.328c-1.709.42-3.645.9-4.756-.586-.107-.142-.313-.383-.5-.4-.379-.036-1.025.553-1.415.9l-.23.205c-.666.583-2.47,2.056-3.377,2.795a33.934,33.934,0,0,0,12.26,17.355c1.484-1.328,1.838-1.328,2.129-1.328a2.011,2.011,0,0,1,.961.33c.443.236,1.184.632,1.577.382.169-.108.321-.223.467-.334,1.219-.923,2.374-1.484,5.165.341,2.409,1.575,4.388,1.372,4.774.821a2.039,2.039,0,0,1,1.616-.763C60.147,90.752,60.259,90.748,60.376,90.748Zm22.341-4.132a6,6,0,0,1,4.411,1.641,33.823,33.823,0,0,0,9-15.405l-.816,0h0c-.417,0-.857.773-1.246,1.456-.6,1.055-1.606,2.822-3.515,2.12a10.438,10.438,0,0,1-2.38-1.313,10.158,10.158,0,0,1-2.888-3.247,2.147,2.147,0,0,0-2.755-1.191c-1.3.391-2.978,2.855-3.61,3.783-.157.231-.282.412-.365.523-.413.544-1.981,3.176-1.524,5.186.45,1.98-1.061,3.115-2.165,3.944-.579.435-1.235.928-1.235,1.277.179.626,3.012,2.192,7.167,1.418A10.544,10.544,0,0,1,82.717,86.616ZM44.148,68.525a5.669,5.669,0,0,1,1.624.223c.788.234,7.725,2.378,8.739,5.76a3.526,3.526,0,0,0,2.266,2.344c.234.028.489-.01.763-.475.8-1.359.73-4.351.678-6.536a24.163,24.163,0,0,1,.025-2.753c.244-2.322,2.677-7.543,4.538-9.156a14.987,14.987,0,0,1,3.634-1.8c3.008-1.238,7.127-2.934,9.237-5.656a4.312,4.312,0,0,0-3.945-7.079c-3.3.676-4.428-.044-5.667-1.134a5.324,5.324,0,0,0-1.173-.851c-1.946-.976-6.921-.443-8.576.628-2.225,1.44-5.338.583-7.434-.907-1.5-1.066-6.316-1.135-9.273-.925a33.807,33.807,0,0,0-9.075,31.584c.928-.758,2.117-1.735,2.609-2.167l.209-.187a4.136,4.136,0,0,1,2.985-1.42,2.758,2.758,0,0,1,1.939,1.211c.3.4,1.482.107,2.628-.175A13.818,13.818,0,0,1,44.148,68.525ZM41.1,2.928a14.766,14.766,0,0,0,4.823,12.883,16.537,16.537,0,0,0,12.885,4.14A44.5,44.5,0,0,0,51.98,12.2a29.665,29.665,0,0,0-7.121-4.287l.761-1.9a32.188,32.188,0,0,1,6.294,3.534L51.871,8.35l2.048-.073.107,2.991a46.612,46.612,0,0,1,5.9,6.721c.263-2.718.241-7.1-2-10.085-2.782-3.7-5.578-3.481-8.279-3.267-.6.048-1.174.092-1.73.09A21.011,21.011,0,0,1,41.1,2.928Z" transform="translate(-27.088 0.713)" fill="#7cad3e" stroke="#7cad3e" stroke-width="1"/>
</svg>
