<svg xmlns="http://www.w3.org/2000/svg" width="118" height="117.998" viewBox="0 0 118 117.998">
  <g id="email" transform="translate(-0.001 -0.004)">
    <g id="Group_1837" data-name="Group 1837" transform="translate(0.001 0.004)">
      <g id="Group_1836" data-name="Group 1836" transform="translate(0 0)">
        <path id="Path_17471" data-name="Path 17471" d="M117.977,45.114a1.86,1.86,0,0,0-.081-.4,1.968,1.968,0,0,0-.112-.338,1.765,1.765,0,0,0-.2-.3,1.854,1.854,0,0,0-.262-.3c-.032-.027-.045-.065-.079-.092L98.333,28.989V13.764a5.9,5.9,0,0,0-5.9-5.9H71.119L62.585,1.238a5.832,5.832,0,0,0-7.173,0L46.877,7.864H25.563a5.9,5.9,0,0,0-5.9,5.9V28.989L.754,43.679c-.033.028-.047.065-.079.092a1.845,1.845,0,0,0-.262.3,1.755,1.755,0,0,0-.2.3,1.941,1.941,0,0,0-.112.338,1.864,1.864,0,0,0-.081.393c0,.041-.024.077-.024.118V112.1a5.834,5.834,0,0,0,1.154,3.471c.012.018.014.039.027.055s.043.033.063.055A5.872,5.872,0,0,0,5.9,118H112.1a5.873,5.873,0,0,0,4.665-2.329c.016-.02.039-.026.053-.045s.016-.037.028-.055A5.835,5.835,0,0,0,118,112.1V45.232C118,45.191,117.979,45.156,117.977,45.114ZM57.818,4.341a1.886,1.886,0,0,1,2.346,0L64.7,7.864H53.294ZM6.391,114.069,57.818,74.122a1.888,1.888,0,0,1,2.346,0L111.6,114.069ZM114.067,111,62.585,71.018a5.836,5.836,0,0,0-7.173,0L3.928,111V48.228L36.158,73.255a1.967,1.967,0,0,0,2.411-3.11L5.826,44.721,19.663,33.968v15.2a1.967,1.967,0,1,0,3.933,0v-35.4A1.967,1.967,0,0,1,25.563,11.8h66.87A1.967,1.967,0,0,1,94.4,13.764v35.4a1.967,1.967,0,0,0,3.933,0v-15.2l13.836,10.752-32.8,25.47A1.967,1.967,0,1,0,81.781,73.3l32.286-25.07V111Z" transform="translate(-0.001 -0.005)" fill="#919191"/>
        <path id="Path_17472" data-name="Path 17472" d="M200.776,99.705V91.838a23.6,23.6,0,1,0-23.6,23.6,1.967,1.967,0,1,0,0-3.933,19.668,19.668,0,1,1,19.668-19.668v7.867a3.934,3.934,0,1,1-7.867,0V91.838a1.967,1.967,0,1,0-3.933,0,7.867,7.867,0,1,1-7.867-7.867,1.967,1.967,0,1,0,0-3.933,11.8,11.8,0,1,0,7.952,20.5,7.845,7.845,0,0,0,15.65-.829Z" transform="translate(-118.178 -52.511)" fill="#919191"/>
      </g>
    </g>
  </g>
</svg>
