<svg id="facebook-logo" xmlns="http://www.w3.org/2000/svg" width="11.341" height="20.976" viewBox="0 0 11.341 20.976">
  <path id="Path_6" data-name="Path 6" d="M32.991,0l-2.72,0A4.777,4.777,0,0,0,25.24,5.162v2.38H22.5a.428.428,0,0,0-.428.428v3.449a.428.428,0,0,0,.428.428H25.24v8.7a.428.428,0,0,0,.428.428h3.568a.428.428,0,0,0,.428-.428v-8.7h3.2a.428.428,0,0,0,.428-.428V7.97a.428.428,0,0,0-.428-.428h-3.2V5.525c0-.97.231-1.462,1.494-1.462H32.99a.428.428,0,0,0,.428-.428V.432A.428.428,0,0,0,32.991,0Z" transform="translate(-22.077)" fill="#fff"/>
</svg>
