<svg xmlns="http://www.w3.org/2000/svg" width="264.37" height="87.26" viewBox="0 0 264.37 87.26">
  <g id="logos_1" transform="translate(-0.959)" opacity="0.2">
    <text id="Préshent" transform="translate(76.805 66.605)" fill="#fff" font-size="45" font-family="Impact"><tspan x="0" y="0">Préshent</tspan></text>
    <text id="GLOBAL_SUSTAINABILITY" data-name="GLOBAL SUSTAINABILITY" transform="translate(78.083 85.26)" fill="#fff" font-size="9" font-family="Roboto-Light, Roboto" font-weight="300" letter-spacing="0.18em"><tspan x="0" y="0">G</tspan><tspan y="0" letter-spacing="0.15em">L</tspan><tspan y="0">OBAL SUS</tspan><tspan y="0" letter-spacing="0.14em">T</tspan><tspan y="0">AI</tspan><tspan y="0" letter-spacing="0.19em">N</tspan><tspan y="0">ABIL</tspan><tspan y="0" letter-spacing="0.16em">I</tspan><tspan y="0" letter-spacing="0.19em">T</tspan><tspan y="0">Y</tspan></text>
    <rect id="Rectangle_30" data-name="Rectangle 30" width="167.878" height="1.866" transform="translate(78.723 72.571)" fill="#fff"/>
    <path id="Path_576" data-name="Path 576" d="M5.737,53.494A32.109,32.109,0,0,1,36.645,23.026c-.916-.13-1.84-.225-2.773-.268A32.118,32.118,0,0,0,30.624,86.89a25.051,25.051,0,0,0,2.79,0,32.109,32.109,0,0,1-27.677-33.4Z" transform="translate(0 -3.097)" fill="#fff"/>
    <path id="Path_577" data-name="Path 577" d="M58.5,82.465S36.845,91.225,11.37,70l2.03,6.159S38.693,100.07,58.5,82.465Z" transform="translate(-1.418 -9.531)" fill="#fff"/>
    <path id="Path_578" data-name="Path 578" d="M64.667,51.33S33.958,53.61,19.35,41.758L30.58,38.83A68.364,68.364,0,0,0,60.7,44.013Z" transform="translate(-2.504 -5.287)" fill="#fff"/>
    <path id="Path_579" data-name="Path 579" d="M11,58.27s22.218,20.041,52.781,11.9L65.076,61S43.731,72.661,13.7,49.64Z" transform="translate(-1.367 -6.759)" fill="#fff"/>
    <path id="Path_580" data-name="Path 580" d="M36.914,51.252c-10.366.734-19.678-.708-23.246-2.263a27.055,27.055,0,0,0-2.678,8.638c5.641,2.35,14.893,3.455,25.233,2.764,12.4-.864,22.883-4.207,27.271-8.232a27.184,27.184,0,0,0-3.93-7.3C56.972,48.151,47.487,50.51,36.914,51.252Z" transform="translate(-1.366 -6.108)" fill="#fff"/>
    <path id="Path_581" data-name="Path 581" d="M36.967,71.964c-10.556.743-19.981-.466-25.587-2.911a27.245,27.245,0,0,0,2.03,6.159c4.527,3.093,14.685,5.01,25.423,4.259,10.141-.717,20.222-3.948,25.051-7.515a26.952,26.952,0,0,0,1.244-9.165C61.439,67.221,50.313,71.022,36.967,71.964Z" transform="translate(-1.419 -8.55)" fill="#fff"/>
    <path id="Path_582" data-name="Path 582" d="M40.863,90.072A43.538,43.538,0,0,1,22.29,87.54a27.159,27.159,0,0,0,37.7-3.222c.2-.233.4-.466.587-.708A40.4,40.4,0,0,1,40.863,90.072Z" transform="translate(-2.904 -11.384)" fill="#fff"/>
    <path id="Path_583" data-name="Path 583" d="M37.6,42.67c7.567-.527,14.184-2.281,18.184-4.535A27.168,27.168,0,0,0,19.35,40.882C23.643,42.419,30.278,43.2,37.6,42.67Z" transform="translate(-2.504 -4.41)" fill="#fff"/>
    <path id="Path_584" data-name="Path 584" d="M52.689,27.328c4.017-1.633,8.172-2.79,8.172-2.79-7.705-8.889-16.5-10.046-22.011-7.559-4.457,2-5.52,4.889-5.52,4.889A31.884,31.884,0,0,1,46.7,22.24c-5.442-.441-13.338,1.149-13.338,1.149C38.522,31.112,45.873,30.1,52.689,27.328Z" transform="translate(-4.408 -2.156)" fill="#fff"/>
    <path id="Path_585" data-name="Path 585" d="M28.776,7.308A72.32,72.32,0,0,1,28.681,0c-9.122,3.87-12.4,10.634-11.861,15.713.449,4.1,2.488,5.727,2.488,5.727a27.021,27.021,0,0,1,3.81-10.66C21.339,15.039,20.527,21.8,20.527,21.8,28.1,19.678,29.217,13.5,28.776,7.308Z" transform="translate(-2.152)" fill="#fff"/>
    <text id="TM" transform="translate(248.329 35.293)" fill="#fff" font-size="11" font-family="Roboto-Medium, Roboto" font-weight="500"><tspan x="0" y="0">TM</tspan></text>
  </g>
</svg>
