<svg xmlns="http://www.w3.org/2000/svg" width="91.046" height="91.135" viewBox="0 0 91.046 91.135">
  <g id="XMLID_2182_" transform="translate(0.545 0.634)">
    <g id="XMLID_603_" transform="translate(0 0.001)">
      <path id="XMLID_604_" d="M443.027,40.646a1.928,1.928,0,0,0,1.367-.566l3.387-3.387a1.934,1.934,0,0,0-2.735-2.735l-3.388,3.387a1.934,1.934,0,0,0,1.367,3.3Z" transform="translate(-364.804 -26.935)" fill="#fff" stroke="#4c8c8c" stroke-width="1"/>
      <path id="XMLID_707_" d="M301.346,40.08a1.934,1.934,0,0,0,2.734-2.735l-3.387-3.387a1.934,1.934,0,1,0-2.735,2.735Z" transform="translate(-245.53 -26.935)" fill="#fff" stroke="#4c8c8c" stroke-width="1"/>
      <path id="XMLID_710_" d="M340.23,87.679a11.452,11.452,0,1,0-11.452-11.452A11.465,11.465,0,0,0,340.23,87.679Zm0-19.036a7.585,7.585,0,1,1-7.585,7.585,7.593,7.593,0,0,1,7.585-7.585Z" transform="translate(-272.206 -54.25)" fill="#fff" stroke="#4c8c8c" stroke-width="1"/>
      <path id="XMLID_711_" d="M444.4,177.66a1.934,1.934,0,0,0-2.735,2.735l3.388,3.387a1.934,1.934,0,1,0,2.734-2.735Z" transform="translate(-364.805 -146.211)" fill="#fff" stroke="#4c8c8c" stroke-width="1"/>
      <path id="XMLID_712_" d="M301.346,177.66l-3.387,3.387a1.934,1.934,0,1,0,2.734,2.735l3.388-3.387a1.934,1.934,0,1,0-2.735-2.735Z" transform="translate(-245.53 -146.211)" fill="#fff" stroke="#4c8c8c" stroke-width="1"/>
      <path id="XMLID_713_" d="M467.228,115.935a1.934,1.934,0,0,0,1.934,1.934h4.791a1.934,1.934,0,1,0,0-3.867h-4.791A1.934,1.934,0,0,0,467.228,115.935Z" transform="translate(-385.885 -94.043)" fill="#fff" stroke="#4c8c8c" stroke-width="1"/>
      <path id="XMLID_714_" d="M379.937,8.659a1.934,1.934,0,0,0,1.934-1.934V1.935a1.934,1.934,0,1,0-3.867,0v4.79A1.934,1.934,0,0,0,379.937,8.659Z" transform="translate(-311.827 -0.001)" fill="#fff" stroke="#4c8c8c" stroke-width="1"/>
      <path id="XMLID_715_" d="M378,205.16v4.791a1.934,1.934,0,1,0,3.867,0V205.16a1.934,1.934,0,1,0-3.867,0Z" transform="translate(-311.827 -167.845)" fill="#fff" stroke="#4c8c8c" stroke-width="1"/>
      <path id="XMLID_716_" d="M265.937,117.868h4.79a1.934,1.934,0,1,0,0-3.867h-4.79a1.934,1.934,0,1,0,0,3.867Z" transform="translate(-218.041 -94.043)" fill="#fff" stroke="#4c8c8c" stroke-width="1"/>
      <path id="XMLID_719_" d="M88.243,86.485H64.031V81.564H84.425A4.219,4.219,0,0,0,88.5,76.24L81.818,51.63a4.227,4.227,0,0,0-4.071-3.114H37A4.227,4.227,0,0,0,32.93,51.63l-3.312,12.2v-26.7l6.934,4a14.332,14.332,0,0,0,7.15,1.9,14.169,14.169,0,0,0,3.742-.5,1.766,1.766,0,0,0,1.231-2.159,14.161,14.161,0,0,0-6.644-8.665L29.793,24.654V10.609A14.165,14.165,0,0,0,25.6.516,1.758,1.758,0,0,0,23.126.509,14.345,14.345,0,0,0,18.9,10.644V24.683L6.707,31.72A14.164,14.164,0,0,0,.06,40.394a1.758,1.758,0,0,0,1.234,2.15,14.167,14.167,0,0,0,3.742.5,14.337,14.337,0,0,0,7.15-1.9l6.885-3.975V53.351a1.758,1.758,0,0,0,3.516,0V35.136l1.782-1.029,1.733,1V86.486H22.587V69.171a1.758,1.758,0,0,0-3.516,0V86.486H1.758a1.758,1.758,0,1,0,0,3.516H88.243a1.758,1.758,0,0,0,0-3.516ZM26.878,27.829A2.533,2.533,0,1,1,24.344,25.3,2.536,2.536,0,0,1,26.878,27.829ZM44.622,39.49A10.819,10.819,0,0,1,38.309,38.1L28.357,32.35a6.048,6.048,0,0,0,1.922-3.355l9.994,5.77A10.654,10.654,0,0,1,44.622,39.49ZM24.36,4.479a10.66,10.66,0,0,1,1.918,6.13V22.1a6.025,6.025,0,0,0-3.867,0V10.644A10.816,10.816,0,0,1,24.36,4.479ZM10.428,38.1A10.808,10.808,0,0,1,4.115,39.49a10.658,10.658,0,0,1,4.35-4.726l9.949-5.744a6.05,6.05,0,0,0,1.937,3.347ZM44.223,78.048l.859-6.328H55.6v6.328Zm-13.9,0a.7.7,0,0,1-.679-.887L31.12,71.72H41.534l-.859,6.328Zm3.47-16.172H42.87L42.011,68.2H32.074ZM55.6,52.032V58.36H46.895l.859-6.328Zm11.363,0,.859,6.328H59.116V52.032ZM82.673,68.2H72.705l-.859-6.328h9.109Zm-13.516,0H59.116V61.876H68.3ZM55.6,61.876V68.2H45.559l.859-6.328Zm3.516,9.844H69.635l.859,6.328H59.116Zm25.868,6.052a.69.69,0,0,1-.558.276H74.041l-.859-6.328H83.628L85.1,77.161a.691.691,0,0,1-.12.611ZM78.425,52.551,80,58.36H71.369l-.859-6.328h7.236A.7.7,0,0,1,78.425,52.551ZM37,52.032h7.2l-.859,6.328h-8.6l1.577-5.809A.7.7,0,0,1,37,52.032ZM29.618,81.505a4.29,4.29,0,0,0,.7.059h20.35v4.922H29.618Zm24.57,4.98V81.564h6.328v4.922Z" transform="translate(0 -0.001)" fill="#fff" stroke="#4c8c8c" stroke-width="1"/>
      <path id="XMLID_737_" d="M110.426,342.366a1.935,1.935,0,1,0-1.367-.567A1.94,1.94,0,0,0,110.426,342.366Z" transform="translate(-89.499 -279.239)" fill="#fff" stroke="#4c8c8c" stroke-width="1"/>
    </g>
  </g>
</svg>
