<svg xmlns="http://www.w3.org/2000/svg" width="89.915" height="86.889" viewBox="0 0 89.915 86.889">
  <g id="energy" transform="translate(0.004 -5.6)">
    <path id="Path_574" data-name="Path 574" d="M77.868,225.667l-11.784,8.808a10.7,10.7,0,0,0-10.1-3.746l-12.047,2.106a13.126,13.126,0,0,1-5.75-.3l-1.336-.385a21.845,21.845,0,0,0-19.923,4.13l-.526-2.9a1.635,1.635,0,0,0-1.863-1.316l-13.2,2.308a1.635,1.635,0,0,0-1.316,1.863L5.079,265.21a1.65,1.65,0,0,0,.668,1.053,1.606,1.606,0,0,0,1.215.263l13.2-2.308a1.635,1.635,0,0,0,1.316-1.863l-.243-1.417,3.078-2.551a5.988,5.988,0,0,1,4.313-1.377l21.523,1.579h.243a22.368,22.368,0,0,0,13.222-4.333c.061-.04.121-.1.182-.142l25.633-25.107a1.6,1.6,0,0,0,.081-2.207A8.458,8.458,0,0,0,77.868,225.667Zm-69.874,37.4L3.479,237.289,13.5,235.527,18.017,261.3Zm53.595-11.379a19.185,19.185,0,0,1-11.217,3.6h-.061L28.849,253.75a9.235,9.235,0,0,0-6.621,2.126l-1.64,1.377-3.017-17.21a18.678,18.678,0,0,1,18.385-4.8l1.336.385a16.361,16.361,0,0,0,7.208.385l12.047-2.106a7.5,7.5,0,0,1,8.2,4.515l-18.02,3.159a1.638,1.638,0,0,0-1.255,1.033,1.588,1.588,0,0,0,.283,1.6,1.618,1.618,0,0,0,1.539.547L67.076,241.3a1.635,1.635,0,0,0,1.316-1.863,11.28,11.28,0,0,0-.607-2.146l12.067-9.03c.02,0,.02-.02.04-.02a5.24,5.24,0,0,1,6.054-.324Z" transform="translate(0 -174.065)" fill="#fff"/>
    <path id="Path_575" data-name="Path 575" d="M135.867,5.6a25.157,25.157,0,1,0,25.167,25.147A25.167,25.167,0,0,0,135.867,5.6Zm0,46.913a21.756,21.756,0,1,1,21.746-21.766A21.75,21.75,0,0,1,135.867,52.513Z" transform="translate(-88.29 0)" fill="#fff"/>
    <text id="_" data-name="$" transform="translate(39.714 40.195)" fill="#fff" font-size="27" font-family="Roboto-Medium, Roboto" font-weight="500"><tspan x="0" y="0">$</tspan></text>
  </g>
</svg>
