<svg xmlns="http://www.w3.org/2000/svg" width="90" height="90" viewBox="0 0 90 90">
  <g id="building" transform="translate(-87 17)">
    <g id="Group_21" data-name="Group 21" transform="translate(87 -17)">
      <g id="Group_20" data-name="Group 20" transform="translate(0 0)">
        <path id="Path_556" data-name="Path 556" d="M88.5,87h-9V37.5A1.5,1.5,0,0,0,78,36H57V1.5A1.5,1.5,0,0,0,55.5,0h-39A1.5,1.5,0,0,0,15,1.5V87H1.5a1.5,1.5,0,1,0,0,3h87a1.5,1.5,0,0,0,0-3Zm-57,0h-6V73.5A1.5,1.5,0,0,1,27,72h3a1.5,1.5,0,0,1,1.5,1.5Zm6-49.5V87h-3V73.5A4.5,4.5,0,0,0,30,69H27a4.5,4.5,0,0,0-4.5,4.5V87H18V3H54V36H39A1.5,1.5,0,0,0,37.5,37.5ZM76.5,87h-36V39h36Z" transform="translate(0 0)" fill="#fff"/>
        <path id="Path_557" data-name="Path 557" d="M211.744,112H201.678A1.678,1.678,0,0,0,200,113.678v10.067a1.678,1.678,0,0,0,1.678,1.678h10.067a1.678,1.678,0,0,0,1.678-1.678V113.678A1.678,1.678,0,0,0,211.744,112Zm-1.678,10.067h-6.711v-6.711h6.711Z" transform="translate(-163.184 -91.383)" fill="#fff"/>
        <path id="Path_558" data-name="Path 558" d="M211.744,32H201.678A1.678,1.678,0,0,0,200,33.678V43.744a1.678,1.678,0,0,0,1.678,1.678h10.067a1.678,1.678,0,0,0,1.678-1.678V33.678A1.678,1.678,0,0,0,211.744,32Zm-1.678,10.067h-6.711V35.356h6.711Z" transform="translate(-163.184 -25.289)" fill="#fff"/>
        <path id="Path_559" data-name="Path 559" d="M131.744,112H121.678A1.678,1.678,0,0,0,120,113.678v10.067a1.678,1.678,0,0,0,1.678,1.678h10.067a1.678,1.678,0,0,0,1.678-1.678V113.678A1.678,1.678,0,0,0,131.744,112Zm-1.678,10.067h-6.711v-6.711h6.711Z" transform="translate(-97.91 -91.383)" fill="#fff"/>
        <path id="Path_560" data-name="Path 560" d="M131.744,32H121.678A1.678,1.678,0,0,0,120,33.678V43.744a1.678,1.678,0,0,0,1.678,1.678h10.067a1.678,1.678,0,0,0,1.678-1.678V33.678A1.678,1.678,0,0,0,131.744,32Zm-1.678,10.067h-6.711V35.356h6.711Z" transform="translate(-97.91 -25.289)" fill="#fff"/>
        <path id="Path_561" data-name="Path 561" d="M131.744,192H121.678A1.678,1.678,0,0,0,120,193.678v10.067a1.678,1.678,0,0,0,1.678,1.678h10.067a1.678,1.678,0,0,0,1.678-1.678V193.678A1.678,1.678,0,0,0,131.744,192Zm-1.678,10.067h-6.711v-6.711h6.711Z" transform="translate(-97.91 -156.656)" fill="#fff"/>
        <path id="Path_562" data-name="Path 562" d="M131.744,272H121.678A1.678,1.678,0,0,0,120,273.678v10.067a1.678,1.678,0,0,0,1.678,1.678h10.067a1.678,1.678,0,0,0,1.678-1.678V273.678A1.678,1.678,0,0,0,131.744,272Zm-1.678,10.067h-6.711v-6.711h6.711Z" transform="translate(-97.91 -221.93)" fill="#fff"/>
        <path id="Path_563" data-name="Path 563" d="M321.678,317.422h10.067a1.678,1.678,0,0,0,1.678-1.678V305.678A1.678,1.678,0,0,0,331.744,304H321.678A1.678,1.678,0,0,0,320,305.678v10.067A1.678,1.678,0,0,0,321.678,317.422Zm1.678-10.067h6.711v6.711h-6.711Z" transform="translate(-261.094 -248.039)" fill="#fff"/>
        <path id="Path_564" data-name="Path 564" d="M321.678,237.422h10.067a1.678,1.678,0,0,0,1.678-1.678V225.678A1.678,1.678,0,0,0,331.744,224H321.678A1.678,1.678,0,0,0,320,225.678v10.067A1.678,1.678,0,0,0,321.678,237.422Zm1.678-10.067h6.711v6.711h-6.711Z" transform="translate(-261.094 -182.766)" fill="#fff"/>
        <path id="Path_565" data-name="Path 565" d="M321.678,397.422h10.067a1.678,1.678,0,0,0,1.678-1.678V385.678A1.678,1.678,0,0,0,331.744,384H321.678A1.678,1.678,0,0,0,320,385.678v10.067A1.678,1.678,0,0,0,321.678,397.422Zm1.678-10.067h6.711v6.711h-6.711Z" transform="translate(-261.094 -314.133)" fill="#fff"/>
        <path id="Path_566" data-name="Path 566" d="M241.678,317.422h10.067a1.678,1.678,0,0,0,1.678-1.678V305.678A1.678,1.678,0,0,0,251.744,304H241.678A1.678,1.678,0,0,0,240,305.678v10.067A1.678,1.678,0,0,0,241.678,317.422Zm1.678-10.067h6.711v6.711h-6.711Z" transform="translate(-195.821 -248.039)" fill="#fff"/>
        <path id="Path_567" data-name="Path 567" d="M241.678,237.422h10.067a1.678,1.678,0,0,0,1.678-1.678V225.678A1.678,1.678,0,0,0,251.744,224H241.678A1.678,1.678,0,0,0,240,225.678v10.067A1.678,1.678,0,0,0,241.678,237.422Zm1.678-10.067h6.711v6.711h-6.711Z" transform="translate(-195.821 -182.766)" fill="#fff"/>
        <path id="Path_568" data-name="Path 568" d="M241.678,397.422h10.067a1.678,1.678,0,0,0,1.678-1.678V385.678A1.678,1.678,0,0,0,251.744,384H241.678A1.678,1.678,0,0,0,240,385.678v10.067A1.678,1.678,0,0,0,241.678,397.422Zm1.678-10.067h6.711v6.711h-6.711Z" transform="translate(-195.821 -314.133)" fill="#fff"/>
      </g>
    </g>
  </g>
</svg>
