<svg xmlns="http://www.w3.org/2000/svg" width="87.04" height="86.123" viewBox="0 0 87.04 86.123">
  <g id="iconfinder_ecologi_outline-17_3449992" transform="translate(-3.008 -3.83)">
    <path id="Path_541" data-name="Path 541" d="M55.186,90.569H40.39l1.939-48.481a.97.97,0,1,1,1.939,0L42.329,88.514H53.17L51.23,42.088a.97.97,0,0,1,1.939-.078Z" transform="translate(-1.12 -1.117)" fill="#fff" stroke="#fff" stroke-width="1"/>
    <path id="Path_542" data-name="Path 542" d="M47.911,38.5a5.042,5.042,0,0,1-5.081-4.994V13.357A9.124,9.124,0,0,1,52.012,4.33h.97V33.506A5.032,5.032,0,0,1,47.911,38.5ZM51.043,6.337a7.156,7.156,0,0,0-6.273,7.02V33.506a3.142,3.142,0,0,0,6.273,0Z" transform="translate(-1.194 0)" fill="#fff" stroke="#fff" stroke-width="1"/>
    <path id="Path_543" data-name="Path 543" d="M71.12,52.024a1.038,1.038,0,0,1-.446-.107l-.621-.33-24.3-12.692a4.761,4.761,0,0,1-1.115-.8l-.145-.136a4.848,4.848,0,0,1-.844-5.818,4.751,4.751,0,0,1,1.183-1.445L45,30.566A5.013,5.013,0,0,1,48.13,29.48h.213a5.013,5.013,0,0,1,2.153.572l18.142,9.463a9.182,9.182,0,0,1,2.647,2.1.972.972,0,1,1-1.464,1.28,7.146,7.146,0,0,0-2.085-1.629L49.6,31.817a3.016,3.016,0,0,0-1.357-.359h-.155a3.054,3.054,0,0,0-1.939.737l-.184.145a3.113,3.113,0,0,0-.572.747,2.977,2.977,0,0,0,.514,3.491l.126.126a2.531,2.531,0,0,0,.65.465L71.6,50.191a.97.97,0,0,1-.485,1.833ZM47.995,31.39Z" transform="translate(-1.201 -0.764)" fill="#fff" stroke="#fff" stroke-width="1"/>
    <path id="Path_544" data-name="Path 544" d="M72.91,51.935a.97.97,0,0,1-.97-.97V50.8l.126-.32a.911.911,0,0,1,1.2-.572.97.97,0,0,1,.6,1.27l-.058.136A.97.97,0,0,1,72.91,51.935Z" transform="translate(-2.079 -1.383)" fill="#fff" stroke="#fff" stroke-width="1"/>
    <path id="Path_545" data-name="Path 545" d="M23.869,52.594l-.446-.882a2.036,2.036,0,0,1-.145-.3,7.283,7.283,0,0,1-.32-.688.973.973,0,0,1,1.784-.776l24.483-12.78a3.006,3.006,0,0,0,1.319-4.082,3.083,3.083,0,0,0-.718-.911,3.161,3.161,0,0,0-2.027-.766h-.145a3.2,3.2,0,0,0-1.387.359L28.135,41.24A7.049,7.049,0,0,0,24.771,45a.973.973,0,0,1-1.823-.679,9.056,9.056,0,0,1,4.3-4.848l18.132-9.463a5.207,5.207,0,0,1,2.162-.572h.2a5.13,5.13,0,0,1,4.49,2.648l.048.106a4.984,4.984,0,0,1-2.133,6.7L48.109,39.96Z" transform="translate(-0.588 -0.763)" fill="#fff" stroke="#fff" stroke-width="1"/>
    <path id="Path_546" data-name="Path 546" d="M79.339,90.945H68.77l1.338-32.734a.971.971,0,1,1,1.939.087l-1.26,30.708h6.526L76.062,58.337a.97.97,0,0,1,1.939,0Z" transform="translate(-1.982 -1.609)" fill="#fff" stroke="#fff" stroke-width="1"/>
    <path id="Path_547" data-name="Path 547" d="M74.133,56.164A3.7,3.7,0,0,1,70.41,52.5V39.021a6.419,6.419,0,0,1,6.467-6.351h.97V52.5a3.694,3.694,0,0,1-3.714,3.665Zm1.774-21.458a4.46,4.46,0,0,0-3.558,4.315V52.5a1.784,1.784,0,0,0,3.559,0Z" transform="translate(-2.032 -0.861)" fill="#fff" stroke="#fff" stroke-width="1"/>
    <path id="Path_548" data-name="Path 548" d="M90.379,65.682l-17.841-9.3a3.636,3.636,0,0,1-1.551-4.964A3.752,3.752,0,0,1,76,49.907l12.13,6.332a6.3,6.3,0,0,1,2.676,8.61ZM74.273,51.419a1.794,1.794,0,0,0-1.571.97,1.7,1.7,0,0,0,.727,2.327l16.047,8.368a4.363,4.363,0,0,0,0-2.443A4.431,4.431,0,0,0,87.276,58l-12.159-6.37a1.755,1.755,0,0,0-.844-.213Z" transform="translate(-2.036 -1.372)" fill="#fff" stroke="#fff" stroke-width="1"/>
    <path id="Path_549" data-name="Path 549" d="M57.962,65.682l-.456-.834A6.254,6.254,0,0,1,57.021,60a6.341,6.341,0,0,1,3.161-3.782l12.13-6.332A3.752,3.752,0,0,1,77.325,51.4a3.636,3.636,0,0,1-1.542,4.964ZM74.009,51.419a1.784,1.784,0,0,0-.844.213l-12.12,6.322a4.412,4.412,0,0,0-2.211,2.637,4.276,4.276,0,0,0,0,2.443l16.037-8.368a1.745,1.745,0,0,0,.863-1.028,1.648,1.648,0,0,0-.136-1.3A1.774,1.774,0,0,0,74.009,51.419Z" transform="translate(-1.617 -1.371)" fill="#fff" stroke="#fff" stroke-width="1"/>
    <path id="Path_550" data-name="Path 550" d="M26.149,90.945H15.58l1.377-32.7a.97.97,0,0,1,1.939,0l-1.29,30.756h6.526l-1.26-30.669a.971.971,0,0,1,1.939-.087Z" transform="translate(-0.366 -1.609)" fill="#fff" stroke="#fff" stroke-width="1"/>
    <path id="Path_551" data-name="Path 551" d="M20.944,56.164A3.694,3.694,0,0,1,17.23,52.5V39.021a6.419,6.419,0,0,1,6.458-6.351h.97V52.5A3.694,3.694,0,0,1,20.944,56.164Zm1.774-21.458a4.46,4.46,0,0,0-3.549,4.315V52.5a1.774,1.774,0,1,0,3.549,0Z" transform="translate(-0.416 -0.861)" fill="#fff" stroke="#fff" stroke-width="1"/>
    <path id="Path_552" data-name="Path 552" d="M37.18,65.682l-17.831-9.3a3.646,3.646,0,0,1-1.532-4.964,3.752,3.752,0,0,1,5.013-1.513l12.13,6.332A6.341,6.341,0,0,1,38.12,60.02a6.254,6.254,0,0,1-.485,4.848ZM21.094,51.419a1.8,1.8,0,0,0-1.58.97,1.687,1.687,0,0,0-.126,1.3,1.745,1.745,0,0,0,.863,1.028l16.037,8.368a4.2,4.2,0,0,0,0-2.443A4.363,4.363,0,0,0,34.087,58l-12.159-6.37a1.726,1.726,0,0,0-.834-.213Z" transform="translate(-0.421 -1.372)" fill="#fff" stroke="#fff" stroke-width="1"/>
    <path id="Path_553" data-name="Path 553" d="M4.742,65.682l-.456-.834a6.3,6.3,0,0,1,2.676-8.61l12.12-6.332a3.752,3.752,0,0,1,5.023,1.513,3.636,3.636,0,0,1-1.542,4.964ZM20.828,51.419a1.755,1.755,0,0,0-.844.213L7.864,57.954a4.431,4.431,0,0,0-2.2,2.637,4.276,4.276,0,0,0,0,2.443L21.7,54.667a1.707,1.707,0,0,0,.863-1.028,1.687,1.687,0,0,0-.155-1.3A1.8,1.8,0,0,0,20.828,51.419Z" transform="translate(0 -1.372)" fill="#fff" stroke="#fff" stroke-width="1"/>
    <path id="Path_554" data-name="Path 554" d="M78.039,22.784H62.156l-.233-.252a6.186,6.186,0,0,1-2.434-4.451,4.945,4.945,0,0,1,1.425-3.675,4.848,4.848,0,0,1,3.4-1.435A7.641,7.641,0,0,1,71.62,7.6c3.074,0,5.372,2.133,5.915,5.4h2.783l.281.233a6.167,6.167,0,0,1,2.327,4.451A4.935,4.935,0,0,1,81.5,21.32h0a4.848,4.848,0,0,1-3.462,1.464ZM62.893,20.845H78.039a2.909,2.909,0,0,0,2.085-.863h0a2.977,2.977,0,0,0,.863-2.191,4.228,4.228,0,0,0-1.454-2.851H75.721l-.058-.911c-.165-2.162-1.29-4.489-4.043-4.489-2.463,0-5.333,1.939-5.5,4.489l-.058.911H64.338a2.909,2.909,0,0,0-2.909,3.083,4.189,4.189,0,0,0,1.464,2.822Z" transform="translate(-1.7 -0.099)" fill="#fff" stroke="#fff" stroke-width="1"/>
    <path id="Path_555" data-name="Path 555" d="M31.391,28.1H15.547a5.507,5.507,0,0,1,0-11.015h0c.756-3.423,4.4-6.254,8.319-6.254,3.529,0,6.138,2.473,6.719,6.254h.756a5.507,5.507,0,0,1,0,11.015ZM15.547,19.023a3.588,3.588,0,0,0-.039,7.175H31.391a3.568,3.568,0,1,0,0-7.136h-2.54l-.058-.911c-.165-2.579-1.532-5.343-4.848-5.343-2.909,0-6.312,2.288-6.516,5.343l-.058.911Z" transform="translate(-0.198 -0.197)" fill="#fff" stroke="#fff" stroke-width="1"/>
  </g>
</svg>
