<svg xmlns="http://www.w3.org/2000/svg" width="86.543" height="78.577" viewBox="0 0 86.543 78.577">
  <g id="water-drop" transform="translate(0.5 -18.688)">
    <path id="Path_571" data-name="Path 571" d="M85.238,278.05a1.023,1.023,0,0,0-1.14-1.7c-2.065,1.377-3.1,2.948-3.1,4.626,0,6.089,13.059,9.359,25.344,9.359s25.344-3.292,25.344-9.359c0-1.549-.9-3.012-2.668-4.324a1.031,1.031,0,0,0-1.226,1.657c.839.624,1.829,1.592,1.829,2.668,0,3.464-9.574,7.315-23.3,7.315s-23.3-3.851-23.3-7.315C83.044,279.771,84.227,278.717,85.238,278.05Z" transform="translate(-63.573 -201.293)" fill="#666" stroke="#7cad3e" stroke-width="1"/>
    <path id="Path_572" data-name="Path 572" d="M75.108,258.26a1.023,1.023,0,0,0-.775,1.893c5.9,2.41,9.122,5.336,9.122,8.24,0,6.411-16.351,13.275-40.706,13.275S2.044,274.8,2.044,268.394c0-2.991,3.442-6,9.7-8.455a1.029,1.029,0,1,0-.753-1.915C3.808,260.863,0,264.456,0,268.415c0,8.606,18.782,15.34,42.771,15.34s42.771-6.734,42.771-15.34C85.543,264.542,81.928,261.036,75.108,258.26Z" transform="translate(0 -186.989)" fill="#666" stroke="#7cad3e" stroke-width="1"/>
    <path id="Path_573" data-name="Path 573" d="M138.68,19.7S122.2,48.68,122.2,57.781a16.48,16.48,0,1,0,32.961,0C155.161,48.68,138.68,19.7,138.68,19.7Zm0,52.561a14.609,14.609,0,0,1-14.609-14.609c0-8.068,14.609-33.778,14.609-33.778s14.609,25.71,14.609,33.778A14.609,14.609,0,0,1,138.68,72.261Z" transform="translate(-95.909 0)" fill="#666" stroke="#7cad3e" stroke-width="1"/>
  </g>
</svg>
